<svg xmlns="http://www.w3.org/2000/svg" width="80" height="80" viewBox="0 0 80 80">
  <g fill="none" fill-rule="evenodd">
    <polygon stroke="#FF8F00" stroke-width="2" points="40.36 4.394 30.998 11.199 49.721 11.199"/>
    <polygon stroke="#FF8F00" stroke-width="2" points="6.488 29.012 10.062 40.021 15.849 22.207"/>
    <polygon stroke="#FF8F00" stroke-width="2" points="19.426 68.842 30.997 68.842 15.85 57.833"/>
    <polygon stroke="#FF8F00" stroke-width="2" points="74.233 29.012 64.87 22.207 70.657 40.021"/>
    <polygon stroke="#FF8F00" stroke-width="2" points="40.36 75.647 49.721 68.841 30.998 68.841"/>
    <polygon stroke="#FF8F00" stroke-width="2" points="70.656 40.02 64.87 57.834 74.232 51.029"/>
    <polygon stroke="#FF8F00" stroke-width="2" points="6.488 51.029 15.849 57.834 10.062 40.02"/>
    <polygon stroke="#FF8F00" stroke-width="2" points="61.295 11.199 49.722 11.199 64.869 22.208"/>
    <polygon stroke="#FF8F00" stroke-width="2" points="70.826 18.128 52.079 4.503 28.909 4.503 10.162 18.128 3 40.171 10.162 62.216 28.909 75.839 52.079 75.839 70.826 62.216 77.988 40.171"/>
    <path fill="#FF8F00" d="M31.212,36.216 C31.212,36.8720033 31.108001,37.3679983 30.9,37.704 C30.691999,38.0400017 30.3560023,38.2799993 29.892,38.424 C30.3560023,38.5680007 30.691999,38.8079983 30.9,39.144 C31.108001,39.4800017 31.212,39.9759967 31.212,40.632 L31.212,45.888 C31.212,47.1360062 31.8039941,47.76 32.988,47.76 L33.588,47.76 L33.588,49.656 L32.532,49.656 C31.331994,49.656 30.428003,49.356003 29.82,48.756 C29.211997,48.155997 28.908,47.2720058 28.908,46.104 L28.908,40.584 C28.908,39.783996 28.5480036,39.384 27.828,39.384 L26.988,39.384 L26.988,37.464 L27.828,37.464 C28.5480036,37.464 28.908,37.064004 28.908,36.264 L28.908,30.744 C28.908,29.5759942 29.211997,28.692003 29.82,28.092 C30.428003,27.491997 31.331994,27.192 32.532,27.192 L33.588,27.192 L33.588,29.088 L32.988,29.088 C31.8039941,29.088 31.212,29.7119938 31.212,30.96 L31.212,36.216 Z M53.988,37.464 L53.988,39.384 L53.172,39.384 C52.4679965,39.384 52.116,39.783996 52.116,40.584 L52.116,46.104 C52.116,47.2720058 51.8080031,48.155997 51.192,48.756 C50.5759969,49.356003 49.668006,49.656 48.468,49.656 L47.412,49.656 L47.412,47.76 L47.988,47.76 C49.2040061,47.76 49.812,47.1360062 49.812,45.888 L49.812,40.632 C49.812,39.9599966 49.911999,39.4600016 50.112,39.132 C50.312001,38.8039984 50.6439977,38.5680007 51.108,38.424 C50.6439977,38.2799993 50.312001,38.0440016 50.112,37.716 C49.911999,37.3879984 49.812,36.8880034 49.812,36.216 L49.812,30.96 C49.812,29.7119938 49.2040061,29.088 47.988,29.088 L47.412,29.088 L47.412,27.192 L48.468,27.192 C49.668006,27.192 50.5759969,27.491997 51.192,28.092 C51.8080031,28.692003 52.116,29.5759942 52.116,30.744 L52.116,36.264 C52.116,37.064004 52.4679965,37.464 53.172,37.464 L53.988,37.464 Z"/>
  </g>
</svg>
